<?xml version="1.0" encoding="UTF-8"?>
<svg id="Capa_1" data-name="Capa 1" xmlns="http://www.w3.org/2000/svg" viewBox="0 0 1000 1000">
  <defs>
    <style>
      .cls-1 {
        fill: #fff;
      }

      .cls-2 {
        fill: #f39326;
      }

      .cls-3 {
        fill: #1d1d1b;
      }
    </style>
  </defs>
  <g>
    <rect class="cls-2" x="534.58" y="379.31" width="386.68" height="241.39" rx="10" ry="10"/>
    <path class="cls-3" d="M645.1,467.42c6.1,3.43,10.86,8.47,14.29,15.13,3.42,6.66,5.14,14.66,5.14,24v60.71h-26.15v-57.16c0-8.22-2.06-14.54-6.16-18.96-4.11-4.42-9.71-6.63-16.81-6.63s-12.92,2.21-17.09,6.63c-4.17,4.42-6.26,10.74-6.26,18.96v57.16h-26.15v-138.22h26.15v47.63c3.36-4.48,7.85-8,13.45-10.55,5.6-2.55,11.83-3.83,18.68-3.83,7.84,0,14.82,1.71,20.92,5.14Z"/>
    <path class="cls-3" d="M776.04,463.78v103.48h-26.34v-13.07c-3.36,4.48-7.75,8-13.17,10.55-5.42,2.55-11.3,3.83-17.65,3.83-8.1,0-15.26-1.71-21.48-5.14-6.23-3.42-11.11-8.47-14.66-15.13-3.55-6.66-5.32-14.6-5.32-23.82v-60.71h26.15v56.97c0,8.22,2.06,14.54,6.16,18.96,4.11,4.42,9.71,6.63,16.81,6.63s12.89-2.21,17-6.63c4.11-4.42,6.16-10.74,6.16-18.96v-56.97h26.34Z"/>
    <path class="cls-3" d="M830.86,466.77c5.91-3.11,12.67-4.67,20.27-4.67,8.84,0,16.84,2.18,24,6.54,7.16,4.36,12.82,10.55,17,18.59,4.17,8.03,6.26,17.34,6.26,27.92s-2.09,19.96-6.26,28.11c-4.17,8.16-9.84,14.48-17,18.96-7.16,4.48-15.16,6.72-24,6.72-7.72,0-14.48-1.53-20.27-4.58-5.79-3.05-10.43-7-13.92-11.86v14.76h-26.15v-138.22h26.15v49.87c3.36-4.98,8-9.03,13.92-12.14Zm36.98,32.22c-2.55-4.54-5.92-8-10.09-10.37-4.17-2.36-8.69-3.55-13.54-3.55s-9.18,1.21-13.36,3.64c-4.17,2.43-7.54,5.95-10.09,10.55-2.55,4.61-3.83,10.03-3.83,16.25s1.28,11.65,3.83,16.25c2.55,4.61,5.91,8.13,10.09,10.55,4.17,2.43,8.62,3.64,13.36,3.64s9.37-1.24,13.54-3.74c4.17-2.49,7.53-6.04,10.09-10.65,2.55-4.61,3.83-10.09,3.83-16.44s-1.28-11.61-3.83-16.16Z"/>
  </g>
  <g>
    <path class="cls-1" d="M176.04,424.95v97.7c0,15.13-4.26,26.78-12.77,34.95-8.52,8.18-20,12.26-34.44,12.26s-27.25-4.29-36.38-12.88c-9.13-8.59-13.7-20.78-13.7-36.59h34.75c0,6,1.23,10.53,3.68,13.59,2.45,3.07,5.99,4.6,10.63,4.6,4.22,0,7.49-1.36,9.81-4.09,2.32-2.72,3.47-6.67,3.47-11.86v-97.7h34.95Z"/>
    <path class="cls-1" d="M209.66,562.92c-8.93-4.77-15.94-11.58-21.05-20.44-5.11-8.86-7.67-19.21-7.67-31.07s2.59-22.04,7.77-30.97c5.18-8.92,12.26-15.77,21.26-20.54,8.99-4.77,19.08-7.15,30.25-7.15s21.26,2.39,30.25,7.15c8.99,4.77,16.08,11.62,21.26,20.54,5.18,8.93,7.77,19.25,7.77,30.97s-2.62,22.04-7.87,30.97c-5.25,8.93-12.4,15.77-21.46,20.54-9.06,4.77-19.18,7.15-30.35,7.15s-21.23-2.38-30.15-7.15Zm47.22-30.46c4.7-4.9,7.05-11.92,7.05-21.05s-2.28-16.15-6.85-21.05c-4.57-4.91-10.19-7.36-16.86-7.36s-12.47,2.42-16.97,7.26c-4.5,4.84-6.74,11.89-6.74,21.15s2.21,16.15,6.64,21.05c4.43,4.91,9.98,7.36,16.66,7.36s12.37-2.45,17.07-7.36Z"/>
    <path class="cls-1" d="M350.79,457.66c6.13-3.27,13.15-4.9,21.05-4.9,9.4,0,17.92,2.39,25.55,7.15,7.63,4.77,13.66,11.58,18.09,20.44,4.43,8.86,6.64,19.15,6.64,30.86s-2.22,22.04-6.64,30.97c-4.43,8.93-10.46,15.81-18.09,20.64-7.63,4.84-16.15,7.26-25.55,7.26-8.04,0-15.06-1.6-21.05-4.8-6-3.2-10.7-7.46-14.1-12.77v15.94h-34.95v-151.25h34.95v53.35c3.27-5.31,7.97-9.61,14.1-12.88Zm28.51,33.01c-4.84-4.97-10.8-7.46-17.88-7.46s-12.85,2.52-17.68,7.56c-4.84,5.04-7.26,11.93-7.26,20.64s2.42,15.61,7.26,20.64c4.84,5.04,10.73,7.56,17.68,7.56s12.88-2.56,17.78-7.67c4.9-5.11,7.36-12.02,7.36-20.75s-2.42-15.57-7.26-20.54Z"/>
    <path class="cls-1" d="M444,564.96c-7.77-3.4-13.9-8.07-18.4-14-4.5-5.93-7.02-12.57-7.56-19.93h34.54c.41,3.95,2.25,7.15,5.52,9.61,3.27,2.45,7.29,3.68,12.06,3.68,4.36,0,7.73-.85,10.12-2.55,2.38-1.7,3.58-3.91,3.58-6.64,0-3.27-1.71-5.69-5.11-7.26-3.41-1.56-8.93-3.3-16.56-5.21-8.18-1.91-14.99-3.91-20.44-6.03-5.45-2.11-10.15-5.45-14.1-10.02-3.95-4.56-5.93-10.73-5.93-18.5,0-6.54,1.81-12.5,5.42-17.88,3.61-5.38,8.92-9.64,15.94-12.77,7.02-3.13,15.36-4.7,25.04-4.7,14.31,0,25.58,3.54,33.83,10.63,8.24,7.09,12.98,16.49,14.21,28.21h-32.29c-.55-3.95-2.28-7.08-5.21-9.4-2.93-2.32-6.78-3.48-11.55-3.48-4.09,0-7.22,.79-9.4,2.35-2.18,1.57-3.27,3.71-3.27,6.44,0,3.27,1.74,5.72,5.21,7.36,3.47,1.63,8.89,3.27,16.25,4.9,8.45,2.18,15.33,4.33,20.64,6.44,5.31,2.11,9.98,5.52,14,10.22,4.02,4.7,6.1,11.01,6.23,18.91,0,6.68-1.87,12.64-5.62,17.89-3.75,5.25-9.13,9.37-16.15,12.37-7.02,3-15.16,4.5-24.43,4.5-9.95,0-18.8-1.7-26.57-5.11Z"/>
  </g>
</svg>