<?xml version="1.0" encoding="utf-8"?>
<!-- Generator: Adobe Illustrator 26.5.0, SVG Export Plug-In . SVG Version: 6.00 Build 0)  -->
<svg version="1.1" id="Capa_1" xmlns="http://www.w3.org/2000/svg" xmlns:xlink="http://www.w3.org/1999/xlink" x="0px" y="0px"
	 viewBox="0 0 842.5 241.4" style="enable-background:new 0 0 842.5 241.4;" xml:space="preserve">
<style type="text/css">
	.st0{fill:#F39326;}
	.st1{fill:#1D1D1B;}
</style>
<g>
	<path class="st0" d="M465.8,0h366.7c5.5,0,10,4.5,10,10v221.4c0,5.5-4.5,10-10,10H465.8c-5.5,0-10-4.5-10-10V10
		C455.8,4.5,460.3,0,465.8,0z"/>
	<path class="st1" d="M566.3,88.1c6.1,3.4,10.9,8.5,14.3,15.1c3.4,6.7,5.1,14.7,5.1,24V188h-26.2v-57.2c0-8.2-2.1-14.5-6.2-19
		c-4.1-4.4-9.7-6.6-16.8-6.6s-12.9,2.2-17.1,6.6c-4.2,4.4-6.3,10.7-6.3,19V188h-26.2V49.7h26.2v47.6c3.4-4.5,7.8-8,13.5-10.5
		c5.6-2.5,11.8-3.8,18.7-3.8C553.3,83,560.3,84.7,566.3,88.1L566.3,88.1z"/>
	<path class="st1" d="M697.3,84.5V188h-26.3v-13.1c-3.4,4.5-7.8,8-13.2,10.5s-11.3,3.8-17.7,3.8c-8.1,0-15.3-1.7-21.5-5.1
		c-6.2-3.4-11.1-8.5-14.7-15.1c-3.5-6.7-5.3-14.6-5.3-23.8V84.5h26.2v57c0,8.2,2.1,14.5,6.2,19c4.1,4.4,9.7,6.6,16.8,6.6
		s12.9-2.2,17-6.6s6.2-10.7,6.2-19v-57L697.3,84.5L697.3,84.5z"/>
	<path class="st1" d="M752.1,87.5c5.9-3.1,12.7-4.7,20.3-4.7c8.8,0,16.8,2.2,24,6.5c7.2,4.4,12.8,10.5,17,18.6
		c4.2,8,6.3,17.3,6.3,27.9c0,10.6-2.1,20-6.3,28.1c-4.2,8.2-9.8,14.5-17,19c-7.2,4.5-15.2,6.7-24,6.7c-7.7,0-14.5-1.5-20.3-4.6
		c-5.8-3-10.4-7-13.9-11.9v14.8H712V49.7h26.2v49.9C741.5,94.6,746.2,90.6,752.1,87.5L752.1,87.5z M789.1,119.7
		c-2.5-4.5-5.9-8-10.1-10.4c-4.2-2.4-8.7-3.5-13.5-3.5s-9.2,1.2-13.4,3.6c-4.2,2.4-7.5,6-10.1,10.5c-2.5,4.6-3.8,10-3.8,16.2
		c0,6.2,1.3,11.7,3.8,16.2c2.5,4.6,5.9,8.1,10.1,10.5c4.2,2.4,8.6,3.6,13.4,3.6s9.4-1.2,13.5-3.7c4.2-2.5,7.5-6,10.1-10.7
		c2.5-4.6,3.8-10.1,3.8-16.4S791.6,124.2,789.1,119.7L789.1,119.7z"/>
</g>
<g>
	<path class="st1" d="M97.3,45.6v97.7c0,15.1-4.3,26.8-12.8,35c-8.5,8.2-20,12.3-34.4,12.3s-27.2-4.3-36.4-12.9S0,156.9,0,141.1
		h34.8c0,6,1.2,10.5,3.7,13.6c2.4,3.1,6,4.6,10.6,4.6c4.2,0,7.5-1.4,9.8-4.1c2.3-2.7,3.5-6.7,3.5-11.9V45.6L97.3,45.6L97.3,45.6z"/>
	<path class="st1" d="M130.9,183.6c-8.9-4.8-15.9-11.6-21.1-20.4s-7.7-19.2-7.7-31.1s2.6-22,7.8-31c5.2-8.9,12.3-15.8,21.3-20.5
		c9-4.8,19.1-7.1,30.2-7.1s21.3,2.4,30.2,7.1c9,4.8,16.1,11.6,21.3,20.5c5.2,8.9,7.8,19.2,7.8,31c0,11.7-2.6,22-7.9,31
		s-12.4,15.8-21.5,20.5c-9.1,4.8-19.2,7.2-30.4,7.2S139.8,188.4,130.9,183.6L130.9,183.6z M178.1,153.1c4.7-4.9,7-11.9,7-21
		s-2.3-16.1-6.9-21c-4.6-4.9-10.2-7.4-16.9-7.4s-12.5,2.4-17,7.3s-6.7,11.9-6.7,21.1s2.2,16.1,6.6,21.1c4.4,4.9,10,7.4,16.7,7.4
		S173.4,158.1,178.1,153.1L178.1,153.1z"/>
	<path class="st1" d="M272,78.4c6.1-3.3,13.1-4.9,21-4.9c9.4,0,17.9,2.4,25.5,7.1c7.6,4.8,13.7,11.6,18.1,20.4
		c4.4,8.9,6.6,19.1,6.6,30.9s-2.2,22-6.6,31c-4.4,8.9-10.5,15.8-18.1,20.6c-7.6,4.8-16.2,7.3-25.5,7.3c-8,0-15.1-1.6-21-4.8
		c-6-3.2-10.7-7.5-14.1-12.8v15.9H223V37.9h34.9v53.4C261.2,85.9,265.9,81.6,272,78.4L272,78.4z M300.6,111.4
		c-4.8-5-10.8-7.5-17.9-7.5s-12.9,2.5-17.7,7.6c-4.8,5-7.3,11.9-7.3,20.6s2.4,15.6,7.3,20.6c4.8,5,10.7,7.6,17.7,7.6
		c6.9,0,12.9-2.6,17.8-7.7c4.9-5.1,7.4-12,7.4-20.8S305.4,116.3,300.6,111.4L300.6,111.4z"/>
	<path class="st1" d="M365.2,185.7c-7.8-3.4-13.9-8.1-18.4-14s-7-12.6-7.6-19.9h34.5c0.4,4,2.2,7.2,5.5,9.6
		c3.3,2.5,7.3,3.7,12.1,3.7c4.4,0,7.7-0.8,10.1-2.5c2.4-1.7,3.6-3.9,3.6-6.6c0-3.3-1.7-5.7-5.1-7.3c-3.4-1.6-8.9-3.3-16.6-5.2
		c-8.2-1.9-15-3.9-20.4-6c-5.5-2.1-10.1-5.5-14.1-10c-4-4.6-5.9-10.7-5.9-18.5c0-6.5,1.8-12.5,5.4-17.9s8.9-9.6,15.9-12.8
		c7-3.1,15.4-4.7,25-4.7c14.3,0,25.6,3.5,33.8,10.6c8.2,7.1,13,16.5,14.2,28.2h-32.3c-0.5-4-2.3-7.1-5.2-9.4s-6.8-3.5-11.5-3.5
		c-4.1,0-7.2,0.8-9.4,2.4c-2.2,1.6-3.3,3.7-3.3,6.4c0,3.3,1.7,5.7,5.2,7.4c3.5,1.6,8.9,3.3,16.2,4.9c8.5,2.2,15.3,4.3,20.6,6.4
		c5.3,2.1,10,5.5,14,10.2c4,4.7,6.1,11,6.2,18.9c0,6.7-1.9,12.6-5.6,17.9s-9.1,9.4-16.1,12.4c-7,3-15.2,4.5-24.4,4.5
		C381.9,190.8,373,189.1,365.2,185.7L365.2,185.7z"/>
</g>
</svg>
