<?xml version="1.0" encoding="UTF-8"?>
<svg id="Capa_1" data-name="Capa 1" xmlns="http://www.w3.org/2000/svg" viewBox="0 0 874.04 771.29">
  <defs>
    <style>
      .cls-1 {
        stroke-miterlimit: 10;
        stroke-width: 11px;
      }

      .cls-1, .cls-2 {
        fill: none;
        stroke: #f39326;
        stroke-linecap: round;
      }

      .cls-2 {
        stroke-linejoin: round;
        stroke-width: 6px;
      }

      .cls-3 {
        fill: #1d1d1b;
      }
    </style>
  </defs>
  <path class="cls-3" d="M650.41,476.11c-8.07-26-15.27-50.55-23.46-74.76-2.67-7.89-1.27-11.81,6.03-15.42,9.51-4.7,18.5-10.45,27.68-15.8,24.4-14.21,27.03-30.37,8.36-51.12,12.46-3.66,33.32,5.77,40.45,19.71,20.67,40.46,33.75,83.51,39.22,128.51,3.28,27-15.88,49.44-42.69,53.71-22.54,3.59-45,7.62-67.58,10.93-6.37,.94-8.92,3.83-10.35,9.8-3.55,14.83-7.77,29.5-13.24,44.23-.27-1.52-.79-3.04-.79-4.56-.05-30.02,.17-60.03-.21-90.04-.09-7.24,2.36-9.94,9.38-10.63,8.62-.85,17.13-2.81,27.2-4.56Z"/>
  <path class="cls-3" d="M147.2,232.35c8.55,9.52,17.99,17.94,24.84,28.11,13.84,20.54,12.16,43.08,2.97,64.68-7.46,17.54-8.02,34.2-1.33,51.83,7.04,18.54,8.24,37.81,4.78,57.32-3.27,18.48-6.9,36.89-10.02,55.39-.97,5.78-3.6,7.77-9.39,7.69-18.77-.27-37.55-.27-56.32,0-5.44,.08-7.69-1.99-8.94-7.11-5.27-21.57-10.92-43.05-16.38-64.58-4.19-16.51-3.62-33.1,1.61-49.11,6.74-20.63,7.57-41.63,7.27-63.03-.25-18.1,.51-36.26,1.78-54.32,.52-7.46,3.54-14.74,7.35-21.63,0,18.59-.64,37.21,.21,55.76,.64,13.92,2.3,27.95,5.16,41.58,3.65,17.42,8.81,34.54,13.6,51.72,4.44,15.91,17.94,24.06,32.88,20.22,14.86-3.81,22.3-17.46,18.35-33.84-1.32-5.47-2.5-11.02-4.4-16.3-11.39-31.72-14.24-64.48-12.8-97.89,.37-8.54-.75-17.14-1.23-26.49Z"/>
  <path class="cls-3" d="M779.45,510.97c-15.53-.2-26.14-13.84-22.1-29.87,7.55-30,15.81-59.81,23.81-89.7,8.57-32,17.12-64,25.81-95.97,4.16-15.31,16.59-23.05,30.18-19.08,13.12,3.83,19.21,16.38,15.13,31.64-16.24,60.67-32.51,121.34-48.84,181.99-3.68,13.66-12.41,21.14-23.98,20.99Z"/>
  <path class="cls-3" d="M692.36,260.88c.15,26.74-21.47,48.49-48.14,48.44-26.28-.05-47.92-21.61-47.91-47.72,.01-26.92,21.4-48.43,48.16-48.43,26.31,0,47.74,21.35,47.89,47.72Z"/>
  <path class="cls-3" d="M179.83,163.76c-.14,25.85-21.66,47.09-47.51,46.92-26.52-.18-47.43-21.59-47.07-48.22,.35-25.94,21.8-46.75,47.9-46.46,25.89,.28,46.82,21.71,46.68,47.76Z"/>
  <path class="cls-3" d="M673.74,346.67c-2.15,2.74-5.3,9.71-10.7,13.13-18.72,11.87-38.07,22.77-57.51,33.46-5.63,3.09-12.27,4.47-18.57,6.2-18.38,5.04-36.76,10.08-55.25,14.67-12.02,2.98-21.95-2.99-24.66-14.01-2.56-10.39,3.37-19.92,14.73-23.65,1.19-.39,2.4-.7,3.63-.95,42.13-8.44,80.96-24.63,116.9-48.31,14.44-9.51,31.19-.7,31.44,19.45Z"/>
  <path class="cls-3" d="M106.75,504.77c14.95,0,29.91-.02,44.87,0,6.62,.01,5.22,4.91,5.06,8.75-1.33,31.53-2.75,63.05-4.15,94.58-.46,10.3-.63,20.62-1.46,30.89-.81,9.9-8.64,16.15-19.44,16.29-11.21,.15-19.99-6.23-20.48-16.21-2.12-43.68-3.84-87.38-5.67-131.08-.02-.55,.42-1.13,1.27-3.23Z"/>
  <path class="cls-3" d="M483.88,453.81c-38.79,0-77.57,0-116.36,0-2.19,0-4.38,.05-6.57-.05-9.44-.43-15.41-5.57-15.16-13.01,.25-7.55,6.1-12.34,15.77-12.34,81.64-.04,163.28-.03,244.92,.06,9.76,0,15.48,4.83,15.56,12.43,.08,7.95-5.9,12.83-16.17,12.85-40.66,.05-81.33,.02-121.99,.02v.05Z"/>
  <path class="cls-3" d="M159.45,378.67c-.05,11.86-6.41,19.74-15.22,21.49-9.37,1.86-18.96-3.46-22-13.26-4.16-13.42-6.69-27.38-11.41-40.58-11.96-33.41-7.52-67.96-7.96-102.13-.14-10.58,8.89-18.25,18.88-18.3,10.33-.05,18.73,7.85,19.27,19,.52,10.91,.86,21.9,.24,32.79-1.32,23.1,2.22,45.35,9.19,67.31,3.77,11.87,6.49,24.08,9.03,33.68Z"/>
  <path class="cls-3" d="M712.77,564.8c-16.57,0-33.13,.04-49.7-.01-10.68-.03-18.66-4.8-23.44-14.32-3.88-7.73-2.42-10.49,6.13-11.97,20.63-3.57,41.34-6.73,61.92-10.55,6.66-1.24,14.17-2.54,19.3-6.43,13.73-10.41,28.69-7,43.11-4.99,12.02,1.67,19.24,13.82,18.11,25.96-1.1,11.87-10.6,21.64-22.92,22.02-17.49,.54-35,.14-52.51,.14v.16Z"/>
  <path class="cls-3" d="M606.47,552.79c0,27.2,.06,54.4-.03,81.6-.03,10.95-4.87,16.94-13.18,16.86-8.28-.08-12.99-6.07-13-17.12-.06-54.71,.09-109.43-.19-164.14-.04-7.22,2.42-9.07,9.21-8.9,20.73,.53,16.96-1.82,17.13,16.66,.22,25.01,.05,50.02,.06,75.04Z"/>
  <path class="cls-3" d="M388.67,553.02c0,27.49,.1,54.98-.04,82.47-.06,11.54-7.73,18.23-16.89,15.04-7.37-2.57-9.28-8.46-9.26-15.63,.08-26.55,.03-53.11,.04-79.66,0-28.12,.17-56.23-.11-84.35-.07-6.86,1.23-10.13,9.19-9.86,20.25,.67,16.88-1.36,17.02,17.02,.18,24.99,.05,49.98,.05,74.98Z"/>
  <path class="cls-3" d="M702.2,598.73c0-6.24-.12-12.49,.03-18.73,.14-5.62,2.46-10.14,8.65-10.09,6.16,.04,8.45,4.38,8.44,10.16-.02,10.93,.36,21.87-.13,32.78-.29,6.41,1.6,9.66,8.16,11.06,10.37,2.21,20.56,5.26,30.8,8.06,5.83,1.59,11.19,4.22,9.1,11.54-1.87,6.56-7.52,7.37-12.95,5.15-28.87-11.81-57.54-10.95-86.27,.41-5.56,2.2-11.04,1.4-13.02-5.03-2.23-7.21,2.89-10.09,8.79-11.73,9.63-2.66,19.18-5.8,28.97-7.6,7.94-1.46,10.32-5.37,9.42-12.86-.52-4.31-.09-8.73-.09-13.1h.1Z"/>
  <path class="cls-3" d="M20.52,175.65c15.02-7.59,19.95-21.08,26.26-33.55,8.96-17.7,21.82-22.02,40.94-13.29-4.98,9.9-9.71,19.93-14.99,29.65-10.98,20.2-28.59,26.26-52.21,17.18Z"/>
  <path class="cls-3" d="M572.64,564.71v80.6c-10.22-1.68-19.12-12.65-16.7-24.14,4.02-19.09,9.67-37.83,14.63-56.72,.69,.09,1.38,.17,2.06,.26Z"/>
  <path class="cls-3" d="M511.39,420.86h-23.68c-.61-.9-1.21-1.8-1.82-2.71,3.77-3.26,7.96-9.55,11.2-9.1,5.45,.77,10.29,5.83,15.39,9.08l-1.09,2.72Z"/>
  <line class="cls-1" x1="403.05" y1="241.37" x2="438.87" y2="380.22"/>
  <polyline class="cls-2" points="410.66 352.91 410.66 413.41 462.19 413.41"/>
</svg>