<?xml version="1.0" encoding="utf-8"?>
<!-- Generator: Adobe Illustrator 26.5.0, SVG Export Plug-In . SVG Version: 6.00 Build 0)  -->
<svg version="1.1" id="Capa_1" xmlns="http://www.w3.org/2000/svg" xmlns:xlink="http://www.w3.org/1999/xlink" x="0px" y="0px"
	 viewBox="0 0 874 771.3" style="enable-background:new 0 0 874 771.3;" xml:space="preserve">
<style type="text/css">
	.st0{fill:#FFFFFF;}
	.st1{fill:none;stroke:#F39326;stroke-width:11;stroke-linecap:round;stroke-miterlimit:10;}
	.st2{fill:none;stroke:#F39326;stroke-width:6;stroke-linecap:round;stroke-linejoin:round;}
</style>
<path class="st0" d="M650.4,476.1c-8.1-26-15.3-50.5-23.5-74.8c-2.7-7.9-1.3-11.8,6-15.4c9.5-4.7,18.5-10.5,27.7-15.8
	c24.4-14.2,27-30.4,8.4-51.1c12.5-3.7,33.3,5.8,40.5,19.7c20.7,40.5,33.8,83.5,39.2,128.5c3.3,27-15.9,49.4-42.7,53.7
	c-22.5,3.6-45,7.6-67.6,10.9c-6.4,0.9-8.9,3.8-10.3,9.8c-3.5,14.8-7.8,29.5-13.2,44.2c-0.3-1.5-0.8-3-0.8-4.6c0-30,0.2-60-0.2-90
	c-0.1-7.2,2.4-9.9,9.4-10.6C631.8,479.8,640.3,477.9,650.4,476.1L650.4,476.1z"/>
<path class="st0" d="M147.2,232.4c8.6,9.5,18,17.9,24.8,28.1c13.8,20.5,12.2,43.1,3,64.7c-7.5,17.5-8,34.2-1.3,51.8
	c7,18.5,8.2,37.8,4.8,57.3c-3.3,18.5-6.9,36.9-10,55.4c-1,5.8-3.6,7.8-9.4,7.7c-18.8-0.3-37.6-0.3-56.3,0c-5.4,0.1-7.7-2-8.9-7.1
	c-5.3-21.6-10.9-43-16.4-64.6c-4.2-16.5-3.6-33.1,1.6-49.1c6.7-20.6,7.6-41.6,7.3-63c-0.2-18.1,0.5-36.3,1.8-54.3
	c0.5-7.5,3.5-14.7,7.3-21.6c0,18.6-0.6,37.2,0.2,55.8c0.6,13.9,2.3,28,5.2,41.6c3.7,17.4,8.8,34.5,13.6,51.7
	c4.4,15.9,17.9,24.1,32.9,20.2c14.9-3.8,22.3-17.5,18.4-33.8c-1.3-5.5-2.5-11-4.4-16.3c-11.4-31.7-14.2-64.5-12.8-97.9
	C148.8,250.3,147.7,241.7,147.2,232.4L147.2,232.4z"/>
<path class="st0" d="M779.5,511c-15.5-0.2-26.1-13.8-22.1-29.9c7.5-30,15.8-59.8,23.8-89.7c8.6-32,17.1-64,25.8-96
	c4.2-15.3,16.6-23,30.2-19.1c13.1,3.8,19.2,16.4,15.1,31.6c-16.2,60.7-32.5,121.3-48.8,182C799.8,503.6,791,511.1,779.5,511
	L779.5,511z"/>
<path class="st0" d="M692.4,260.9c0.2,26.7-21.5,48.5-48.1,48.4c-26.3,0-47.9-21.6-47.9-47.7c0-26.9,21.4-48.4,48.2-48.4
	C670.8,213.2,692.2,234.5,692.4,260.9L692.4,260.9z"/>
<path class="st0" d="M179.8,163.8c-0.1,25.9-21.7,47.1-47.5,46.9c-26.5-0.2-47.4-21.6-47.1-48.2c0.3-25.9,21.8-46.8,47.9-46.5
	C159,116.3,180,137.7,179.8,163.8L179.8,163.8z"/>
<path class="st0" d="M673.7,346.7c-2.2,2.7-5.3,9.7-10.7,13.1c-18.7,11.9-38.1,22.8-57.5,33.5c-5.6,3.1-12.3,4.5-18.6,6.2
	c-18.4,5-36.8,10.1-55.2,14.7c-12,3-22-3-24.7-14c-2.6-10.4,3.4-19.9,14.7-23.6c1.2-0.4,2.4-0.7,3.6-1c42.1-8.4,81-24.6,116.9-48.3
	C656.8,317.7,673.5,326.5,673.7,346.7L673.7,346.7z"/>
<path class="st0" d="M106.8,504.8c14.9,0,29.9,0,44.9,0c6.6,0,5.2,4.9,5.1,8.8c-1.3,31.5-2.8,63-4.1,94.6
	c-0.5,10.3-0.6,20.6-1.5,30.9c-0.8,9.9-8.6,16.2-19.4,16.3c-11.2,0.2-20-6.2-20.5-16.2c-2.1-43.7-3.8-87.4-5.7-131.1
	C105.5,507.4,105.9,506.9,106.8,504.8L106.8,504.8z"/>
<path class="st0" d="M483.9,453.8c-38.8,0-77.6,0-116.4,0c-2.2,0-4.4,0-6.6,0c-9.4-0.4-15.4-5.6-15.2-13c0.2-7.5,6.1-12.3,15.8-12.3
	c81.6,0,163.3,0,244.9,0.1c9.8,0,15.5,4.8,15.6,12.4c0.1,8-5.9,12.8-16.2,12.9C565.2,453.8,524.5,453.8,483.9,453.8L483.9,453.8
	L483.9,453.8z"/>
<path class="st0" d="M159.4,378.7c-0.1,11.9-6.4,19.7-15.2,21.5c-9.4,1.9-19-3.5-22-13.3c-4.2-13.4-6.7-27.4-11.4-40.6
	c-12-33.4-7.5-68-8-102.1c-0.1-10.6,8.9-18.2,18.9-18.3c10.3-0.1,18.7,7.9,19.3,19c0.5,10.9,0.9,21.9,0.2,32.8
	c-1.3,23.1,2.2,45.4,9.2,67.3C154.2,356.9,156.9,369.1,159.4,378.7L159.4,378.7z"/>
<path class="st0" d="M712.8,564.8c-16.6,0-33.1,0-49.7,0c-10.7,0-18.7-4.8-23.4-14.3c-3.9-7.7-2.4-10.5,6.1-12
	c20.6-3.6,41.3-6.7,61.9-10.5c6.7-1.2,14.2-2.5,19.3-6.4c13.7-10.4,28.7-7,43.1-5c12,1.7,19.2,13.8,18.1,26
	c-1.1,11.9-10.6,21.6-22.9,22c-17.5,0.5-35,0.1-52.5,0.1L712.8,564.8L712.8,564.8z"/>
<path class="st0" d="M606.5,552.8c0,27.2,0.1,54.4,0,81.6c0,11-4.9,16.9-13.2,16.9c-8.3-0.1-13-6.1-13-17.1
	c-0.1-54.7,0.1-109.4-0.2-164.1c0-7.2,2.4-9.1,9.2-8.9c20.7,0.5,17-1.8,17.1,16.7C606.6,502.8,606.5,527.8,606.5,552.8L606.5,552.8z
	"/>
<path class="st0" d="M388.7,553c0,27.5,0.1,55,0,82.5c-0.1,11.5-7.7,18.2-16.9,15c-7.4-2.6-9.3-8.5-9.3-15.6c0.1-26.5,0-53.1,0-79.7
	c0-28.1,0.2-56.2-0.1-84.4c-0.1-6.9,1.2-10.1,9.2-9.9c20.2,0.7,16.9-1.4,17,17C388.8,503,388.7,528,388.7,553L388.7,553z"/>
<path class="st0" d="M702.2,598.7c0-6.2-0.1-12.5,0-18.7c0.1-5.6,2.5-10.1,8.7-10.1c6.2,0,8.5,4.4,8.4,10.2
	c0,10.9,0.4,21.9-0.1,32.8c-0.3,6.4,1.6,9.7,8.2,11.1c10.4,2.2,20.6,5.3,30.8,8.1c5.8,1.6,11.2,4.2,9.1,11.5
	c-1.9,6.6-7.5,7.4-13,5.2c-28.9-11.8-57.5-11-86.3,0.4c-5.6,2.2-11,1.4-13-5c-2.2-7.2,2.9-10.1,8.8-11.7c9.6-2.7,19.2-5.8,29-7.6
	c7.9-1.5,10.3-5.4,9.4-12.9c-0.5-4.3-0.1-8.7-0.1-13.1L702.2,598.7L702.2,598.7z"/>
<path class="st0" d="M20.5,175.6c15-7.6,20-21.1,26.3-33.6c9-17.7,21.8-22,40.9-13.3c-5,9.9-9.7,19.9-15,29.6
	C61.8,178.7,44.1,184.7,20.5,175.6L20.5,175.6z"/>
<path class="st0" d="M572.6,564.7v80.6c-10.2-1.7-19.1-12.7-16.7-24.1c4-19.1,9.7-37.8,14.6-56.7C571.3,564.5,572,564.6,572.6,564.7
	L572.6,564.7z"/>
<path class="st0" d="M511.4,420.9h-23.7c-0.6-0.9-1.2-1.8-1.8-2.7c3.8-3.3,8-9.5,11.2-9.1c5.5,0.8,10.3,5.8,15.4,9.1L511.4,420.9
	L511.4,420.9z"/>
<line class="st1" x1="403" y1="241.4" x2="438.9" y2="380.2"/>
<polyline class="st2" points="410.7,352.9 410.7,413.4 462.2,413.4 "/>
</svg>
