<?xml version="1.0" encoding="UTF-8"?>
<svg id="Capa_1" data-name="Capa 1" xmlns="http://www.w3.org/2000/svg" viewBox="0 0 1000 1000">
  <defs>
    <style>
      .cls-1 {
        fill: #f39326;
      }

      .cls-2 {
        fill: #1d1d1b;
      }
    </style>
  </defs>
  <g>
    <rect class="cls-1" x="167.25" y="420.11" width="665.51" height="415.45" rx="10" ry="10"/>
    <path class="cls-2" d="M381.36,572.95c8.82,4.96,15.71,12.25,20.67,21.89,4.95,9.64,7.43,21.21,7.43,34.72v87.81h-37.83v-82.68c0-11.89-2.97-21.03-8.92-27.42-5.94-6.39-14.05-9.59-24.32-9.59s-18.69,3.2-24.72,9.59c-6.04,6.4-9.05,15.54-9.05,27.42v82.68h-37.83v-199.94h37.83v68.9c4.86-6.48,11.35-11.57,19.45-15.27,8.11-3.69,17.11-5.54,27.02-5.54,11.35,0,21.43,2.48,30.26,7.43Z"/>
    <path class="cls-2" d="M570.76,567.68v149.68h-38.1v-18.91c-4.86,6.48-11.21,11.58-19.05,15.27-7.84,3.69-16.35,5.54-25.53,5.54-11.71,0-22.07-2.47-31.07-7.43-9.01-4.95-16.08-12.25-21.21-21.89-5.13-9.63-7.7-21.12-7.7-34.45v-87.81h37.83v82.41c0,11.89,2.97,21.03,8.92,27.42,5.94,6.4,14.05,9.59,24.32,9.59s18.64-3.2,24.59-9.59c5.94-6.39,8.92-15.54,8.92-27.42v-82.41h38.1Z"/>
    <path class="cls-2" d="M650.06,572c8.55-4.5,18.33-6.76,29.32-6.76,12.79,0,24.36,3.15,34.72,9.46,10.36,6.31,18.55,15.27,24.59,26.88,6.03,11.62,9.05,25.08,9.05,40.39s-3.02,28.87-9.05,40.66c-6.04,11.8-14.23,20.94-24.59,27.42-10.36,6.48-21.93,9.73-34.72,9.73-11.17,0-20.94-2.21-29.32-6.62-8.38-4.41-15.09-10.13-20.13-17.16v21.34h-37.83v-199.94h37.83v72.14c4.86-7.2,11.57-13.06,20.13-17.56Zm53.5,46.61c-3.69-6.57-8.56-11.57-14.59-15-6.04-3.42-12.56-5.13-19.59-5.13s-13.29,1.76-19.32,5.27c-6.04,3.51-10.9,8.6-14.59,15.27-3.69,6.67-5.54,14.5-5.54,23.51s1.85,16.84,5.54,23.51c3.69,6.67,8.55,11.75,14.59,15.27,6.03,3.51,12.47,5.27,19.32,5.27s13.55-1.8,19.59-5.4c6.03-3.6,10.9-8.74,14.59-15.4,3.69-6.66,5.54-14.59,5.54-23.78s-1.85-16.79-5.54-23.37Z"/>
  </g>
  <g>
    <path class="cls-2" d="M314.7,176.27v148.74c0,23.03-6.49,40.76-19.45,53.21-12.97,12.45-30.45,18.67-52.43,18.67s-41.49-6.53-55.39-19.6c-13.9-13.07-20.85-31.63-20.85-55.7h52.9c0,9.13,1.87,16.02,5.6,20.69,3.74,4.67,9.13,7,16.18,7,6.43,0,11.41-2.07,14.94-6.22,3.52-4.15,5.29-10.16,5.29-18.05V176.27h53.21Z"/>
    <path class="cls-2" d="M365.89,386.31c-13.59-7.26-24.27-17.63-32.05-31.12-7.78-13.48-11.67-29.25-11.67-47.3s3.94-33.55,11.83-47.14c7.88-13.58,18.67-24.01,32.36-31.27,13.69-7.26,29.04-10.89,46.06-10.89s32.36,3.63,46.05,10.89c13.69,7.26,24.48,17.69,32.36,31.27,7.88,13.59,11.83,29.3,11.83,47.14s-3.99,33.56-11.98,47.14c-7.99,13.59-18.88,24.01-32.67,31.27-13.8,7.26-29.2,10.89-46.21,10.89s-32.31-3.63-45.9-10.89Zm71.88-46.37c7.16-7.47,10.74-18.15,10.74-32.05s-3.48-24.58-10.43-32.05c-6.95-7.47-15.51-11.2-25.67-11.2s-18.98,3.68-25.83,11.05c-6.85,7.36-10.27,18.1-10.27,32.21s3.37,24.58,10.11,32.05c6.74,7.47,15.19,11.2,25.36,11.2s18.83-3.73,25.98-11.2Z"/>
    <path class="cls-2" d="M580.75,226.05c9.34-4.98,20.02-7.47,32.05-7.47,14.31,0,27.28,3.63,38.9,10.89,11.61,7.26,20.8,17.63,27.54,31.12,6.74,13.49,10.11,29.15,10.11,46.99s-3.37,33.56-10.11,47.14c-6.74,13.59-15.92,24.07-27.54,31.43-11.62,7.37-24.58,11.05-38.9,11.05-12.24,0-22.92-2.44-32.05-7.31-9.13-4.87-16.29-11.36-21.47-19.45v24.27h-53.21V164.44h53.21v81.21c4.98-8.09,12.14-14.62,21.47-19.6Zm43.41,50.25c-7.37-7.57-16.44-11.36-27.23-11.36s-19.56,3.84-26.92,11.51c-7.37,7.68-11.05,18.15-11.05,31.43s3.68,23.76,11.05,31.43c7.36,7.68,16.34,11.51,26.92,11.51s19.6-3.89,27.07-11.67c7.47-7.78,11.2-18.31,11.2-31.58s-3.69-23.7-11.05-31.27Z"/>
    <path class="cls-2" d="M722.64,389.42c-11.83-5.18-21.16-12.29-28.01-21.32-6.85-9.02-10.69-19.14-11.51-30.34h52.59c.62,6.02,3.42,10.89,8.4,14.62,4.98,3.74,11.1,5.6,18.36,5.6,6.64,0,11.77-1.29,15.4-3.89,3.63-2.59,5.45-5.96,5.45-10.11,0-4.98-2.6-8.66-7.78-11.05-5.19-2.38-13.59-5.03-25.21-7.93-12.45-2.9-22.82-5.96-31.12-9.18-8.3-3.21-15.46-8.29-21.47-15.25-6.02-6.95-9.02-16.34-9.02-28.16,0-9.96,2.75-19.03,8.25-27.23,5.49-8.19,13.58-14.67,24.27-19.45,10.68-4.77,23.39-7.16,38.12-7.16,21.78,0,38.95,5.4,51.5,16.18,12.55,10.79,19.76,25.1,21.63,42.94h-49.16c-.83-6.01-3.48-10.78-7.93-14.31-4.46-3.53-10.32-5.29-17.58-5.29-6.22,0-11,1.2-14.31,3.58-3.32,2.39-4.98,5.65-4.98,9.8,0,4.98,2.64,8.71,7.93,11.2,5.29,2.49,13.54,4.98,24.74,7.47,12.86,3.32,23.34,6.59,31.43,9.8,8.09,3.22,15.19,8.4,21.31,15.56,6.12,7.16,9.28,16.75,9.49,28.78,0,10.17-2.85,19.25-8.56,27.23-5.71,7.99-13.9,14.27-24.58,18.83-10.69,4.56-23.08,6.85-37.19,6.85-15.15,0-28.63-2.59-40.45-7.78Z"/>
  </g>
</svg>